<svg id="Layer_1" enable-background="new 0 0 512 512" height="512" viewBox="0 0 512 512" width="512" xmlns="http://www.w3.org/2000/svg"><g><g><g><g><g><path d="m71.752 7.5c0 40.012 9.917 315.973 73.102 315.973 63.184 0 73.102-275.961 73.102-315.973z" fill="#e0efff"/><path d="m177.955 7.5c0 35.346-7.74 254.816-53.102 305.523 5.988 6.694 12.632 10.45 20 10.45 63.184 0 73.102-275.961 73.102-315.973z" fill="#d4e8ff"/><g><path d="m75.295 89.117c6.659 95.011 24.66 234.356 69.559 234.356s62.9-139.344 69.559-234.356z" fill="#ffdb0d"/></g><path d="m174.412 89.117c-5.566 79.415-19.061 189.784-49.559 223.884 5.989 6.697 12.63 10.471 20 10.471 44.899 0 62.9-139.344 69.559-234.356h-40z" fill="#f5d000"/><g><path d="" fill="#fff"/></g></g><g><g><path d="m294.045 7.5c0 40.012 9.917 315.973 73.102 315.973 63.184 0 73.102-275.961 73.102-315.973z" fill="#e0efff"/></g><path d="m400.248 7.5c0 35.346-7.74 254.816-53.102 305.523 5.988 6.694 12.632 10.45 20 10.45 63.184 0 73.102-275.961 73.102-315.973z" fill="#d4e8ff"/><g><path d="m297.587 89.117c6.659 95.011 24.66 234.356 69.559 234.356s62.9-139.344 69.559-234.356z" fill="#ffdb0d"/></g><path d="m396.705 89.117c-5.566 79.415-19.061 189.784-49.559 223.884 5.989 6.697 12.63 10.471 20 10.471 44.898 0 62.9-139.344 69.559-234.356h-40z" fill="#f5d000"/></g></g></g><path d="m270.536 292.46c-6.491 0-12.072 4.312-14.537 10.49-2.465-6.178-8.046-10.49-14.537-10.49-8.773 0-15.885 7.876-15.885 17.592 0 22.238 30.422 34.519 30.422 34.519s30.122-12.447 30.422-34.519c.132-9.715-7.112-17.592-15.885-17.592z" fill="#ff91c1"/><path d="m276.44 386.994c-9.128 0-16.975 6.063-20.441 14.751-3.466-8.687-11.313-14.751-20.441-14.751-12.337 0-22.338 11.075-22.338 24.737 0 31.271 42.779 48.54 42.779 48.54s42.357-17.502 42.779-48.54c.185-13.66-10.001-24.737-22.338-24.737z" fill="#ff5492"/></g><g><path d="m203.328 497h-50.975v-167.009c27.487-7.335 47.219-56.096 60.173-148.459 10.735-76.543 12.93-156.744 12.93-174.032 0-4.143-3.357-7.5-7.5-7.5h-83.654c-9.386 0-9.813 15 0 15h76.072c-.238 13.185-1.041 37.331-2.963 66.617h-125.114c-1.923-29.286-2.726-53.432-2.964-66.617h15.097c9.386 0 9.813-15 0-15h-22.679c-4.143 0-7.5 3.357-7.5 7.5 0 17.288 2.194 97.489 12.93 174.032 12.954 92.361 32.685 141.122 60.172 148.458v167.01h-50.974c-9.386 0-9.813 15 0 15h116.948c9.386 0 9.814-15 .001-15zm-111.292-317.551c-3.963-28.26-6.749-57.009-8.684-82.832h123.004c-1.935 25.823-4.721 54.572-8.684 82.832-17.282 123.221-42.694 136.523-52.817 136.523-10.125.001-35.537-13.302-52.819-136.523z"/><path d="m122.623 123.534c-9.652 0-9.668 15 0 15 9.651 0 9.667-15 0-15z"/><path d="m141.733 209.674c-9.652 0-9.668 15 0 15 9.652 0 9.668-15 0-15z"/><path d="m166.418 183.58c9.652 0 9.668-15 0-15-9.652 0-9.668 15 0 15z"/><path d="m425.621 497h-50.975v-167.003c18.676-4.913 33.582-28.706 45.396-72.358 2.452-9.059-11.916-13.391-14.479-3.918-10.864 40.143-24.507 62.251-38.416 62.251-10.124 0-35.537-13.303-52.818-136.523-3.963-28.26-6.749-57.009-8.684-82.832h122.966c-2.796 37.306-7.318 80.433-14.447 118.682-1.719 9.226 12.946 12.397 14.746 2.748 15.641-83.918 18.839-187.423 18.839-210.547 0-4.143-3.357-7.5-7.5-7.5h-146.205c-4.143 0-7.5 3.357-7.5 7.5 0 17.288 2.194 97.491 12.93 174.032 12.954 92.361 32.685 141.122 60.172 148.458v167.01h-50.974c-9.386 0-9.813 15 0 15h116.948c9.386 0 9.814-15 .001-15zm7.046-482c-.247 13.43-1.087 37.588-3 66.617h-125.077c-1.923-29.286-2.726-53.432-2.963-66.617z"/><path d="m340.008 171.725c9.652 0 9.668-15 0-15-9.652 0-9.668 15 0 15z"/><path d="m390.174 192.273c9.652 0 9.668-15 0-15-9.652 0-9.668 15 0 15z"/><path d="m382.211 121.953c-9.652 0-9.668 15 0 15 9.652 0 9.667-15 0-15z"/><path d="m367.146 261.817c9.652 0 9.668-15 0-15-9.651 0-9.667 15 0 15z"/><path d="m253.192 351.526c1.892.734 3.783.726 5.672-.023 1.416-.585 34.694-14.642 35.057-41.35.176-12.91-10.013-25.193-23.385-25.193-5.399 0-10.487 1.979-14.537 5.423-4.049-3.443-9.138-5.423-14.536-5.423-12.895 0-23.386 11.256-23.386 25.092 0 26.988 33.681 40.895 35.115 41.474zm-11.73-51.566c3.201 0 6.173 2.265 7.571 5.77 2.462 6.17 11.471 6.168 13.933-.001 1.397-3.504 4.368-5.769 7.569-5.769 5.181 0 8.447 5.497 8.387 9.99-.168 12.342-14.652 22.189-22.911 26.354-6.665-3.349-22.935-12.897-22.935-26.252.001-5.565 3.762-10.092 8.386-10.092z"/><path d="m296.972 388.264c-5.578-5.655-12.87-8.77-20.532-8.77-7.754 0-15.014 3.229-20.441 8.737-5.428-5.508-12.688-8.737-20.441-8.737-16.452 0-29.837 14.462-29.837 32.237 0 35.918 45.532 54.712 47.471 55.495 1.892.734 3.783.726 5.672-.023 1.916-.792 46.931-19.8 47.414-55.37.12-8.862-3.272-17.453-9.306-23.569zm-24.085 53.253c-6.589 5.152-13.271 8.731-16.927 10.517-3.621-1.729-10.197-5.188-16.778-10.25-12.25-9.423-18.462-19.534-18.462-30.052 0-9.505 6.656-17.237 14.837-17.237 5.755 0 11.045 3.938 13.476 10.03 2.46 6.169 11.472 6.169 13.932 0 2.431-6.093 7.721-10.03 13.476-10.03 8.889 0 14.951 8.937 14.839 17.136-.143 10.396-6.33 20.452-18.393 29.886z"/></g></g></svg>