<svg id="Capa_1" enable-background="new 0 0 504.5 504.5" height="512" viewBox="0 0 504.5 504.5" width="512" xmlns="http://www.w3.org/2000/svg"><g><path d="m244.314 497c24-20 16-47-6.671-58.313-23.036-11.496-59.206-14.553-96.329-31.687-22.771-10.51-33-36-15-61 8.824-12.255 25-28 25-28" style="fill:none;stroke:#eb839f;stroke-width:15;stroke-linecap:round;stroke-linejoin:round;stroke-miterlimit:10"/><path d="m417.314 497c24-20 16-47-6.671-58.313-23.036-11.496-59.206-14.553-96.329-31.687-22.771-10.51-33-36-15-61 8.824-12.255 25-28 25-28" style="fill:none;stroke:#eb839f;stroke-width:15;stroke-linecap:round;stroke-linejoin:round;stroke-miterlimit:10"/><path d="m324.314 308s69.795-177.415 66.163-235c-1.735-27.513-3.568-52.007-5.194-66.343-.435-3.84-3.827-6.657-7.691-6.657h-106.555c-3.864 0-7.256 2.817-7.691 6.657-1.627 14.337-3.459 38.83-5.194 66.343-3.632 57.585 66.162 235 66.162 235zm-173 0s69.795-177.415 66.163-235c-1.735-27.513-3.568-52.007-5.194-66.343-.436-3.84-3.828-6.657-7.692-6.657h-106.554c-3.864 0-7.256 2.817-7.691 6.657-1.627 14.336-3.46 38.83-5.195 66.343-3.632 57.585 66.163 235 66.163 235zm238.542 174.696-12.125-5.196-53.417-12.5-53.417 12.5-12.125 5.196c-7.512 3.535-4.993 14.304 3.309 14.304h124.232c8.303 0 11.054-10.769 3.543-14.304zm-173 0-12.125-5.196-53.417-12.5-53.417 12.5-12.125 5.196c-7.511 3.535-4.992 14.304 3.31 14.304h124.232c8.302 0 11.053-10.769 3.542-14.304z" fill="#edf3f6"/><path d="m258.152 73c-.714 11.323-1.411 23.152-2.072 35l68.734 10 67.734-10c-.66-11.848-1.357-23.677-2.072-35z" fill="#fff0af"/><path d="m85.152 73c-.714 11.323-1.411 23.152-2.071 35l68.734 10 67.734-10c-.66-11.848-1.357-23.677-2.072-35z" fill="#fff0af"/><path d="m78.314 220c0 37.533 20.378 57.56 41.377 73.697 7.343 5.643 31.623 24.303 31.623 24.303s24.279-18.659 31.621-24.302c20.999-16.138 41.379-36.164 41.379-73.698 0-14.944-2.069-63.589-4.766-112h-136.468c-2.696 48.411-4.766 97.056-4.766 112z" fill="#ffe07d"/><path d="m251.314 220c0 37.533 20.378 57.56 41.377 73.697 7.343 5.643 31.623 24.303 31.623 24.303s24.279-18.659 31.621-24.302c20.999-16.138 41.379-36.164 41.379-73.698 0-14.944-2.069-63.589-4.766-112h-136.468c-2.696 48.411-4.766 97.056-4.766 112z" fill="#ffe07d"/><path d="m167.075 227c-6.556 0-12.337 3.315-15.761 8.361-3.423-5.045-9.204-8.361-15.761-8.361-10.512 0-19.033 8.521-19.033 19.033 0 16.794 12.408 22.801 34.794 40.988 22.386-18.187 34.794-24.194 34.794-40.988 0-10.512-8.521-19.033-19.033-19.033z" fill="#e27f86"/><path d="m151.314 318s-26.884 20.163-32 24c-22.175 16.632-50.646 2.755-53.942-21.238-3.296-23.992 23.452-49.63 47.438-31.64 42.143 31.607 38.504 28.878 38.504 28.878z" fill="#e27f86"/><path d="m151.314 318s-18.929 14.197-22.532 16.899c-15.614 11.711-35.661 1.939-37.982-14.954s16.513-34.945 33.402-22.278c29.674 22.254 27.112 20.333 27.112 20.333z" fill="#ebb3b8"/><path d="m340.075 227c-6.556 0-12.337 3.315-15.761 8.361-3.423-5.045-9.204-8.361-15.761-8.361-10.512 0-19.033 8.521-19.033 19.033 0 16.794 12.408 22.801 34.794 40.988 22.386-18.187 34.794-24.194 34.794-40.988 0-10.512-8.521-19.033-19.033-19.033z" fill="#e27f86"/><path d="m324.314 318s26.884 20.163 32 24c22.175 16.632 50.646 2.755 53.942-21.238 3.297-23.992-23.452-49.63-47.438-31.64-42.142 31.607-38.504 28.878-38.504 28.878z" fill="#e27f86"/><path d="m324.314 318s18.929 14.197 22.532 16.899c15.614 11.711 35.661 1.94 37.982-14.954s-16.513-34.945-33.402-22.279c-29.673 22.255-27.112 20.334-27.112 20.334z" fill="#ebb3b8"/><path d="m204.731 477.5-45.917-19v-146c-4.237 3.026-9.88 3.2-14.295.441l-.705-.441v146l-45.917 19z" fill="#b4d2d7"/><path d="m377.731 477.5-45.917-19v-146c-4.237 3.026-9.88 3.2-14.295.441l-.705-.441v146l-45.917 19z" fill="#b4d2d7"/><g fill="#fff"><path d="m185.314 43c0 7.18-5.82 13-13 13s-13-5.82-13-13 5.82-13 13-13 13 5.82 13 13zm-50 34.5c-7.18 0-13 5.82-13 13s5.82 13 13 13 13-5.82 13-13-5.82-13-13-13zm210-47.5c-7.18 0-13 5.82-13 13s5.82 13 13 13 13-5.82 13-13-5.82-13-13-13zm-37 47c-7.18 0-13 5.82-13 13s5.82 13 13 13 13-5.82 13-13-5.82-13-13-13z"/><path d="m159.814 197c0 4.687-3.813 8.5-8.5 8.5s-8.5-3.813-8.5-8.5 3.813-8.5 8.5-8.5 8.5 3.813 8.5 8.5zm-40.5-165.5c-4.687 0-8.5 3.813-8.5 8.5s3.813 8.5 8.5 8.5 8.5-3.813 8.5-8.5-3.813-8.5-8.5-8.5zm52 81c-4.687 0-8.5 3.813-8.5 8.5s3.813 8.5 8.5 8.5 8.5-3.813 8.5-8.5-3.813-8.5-8.5-8.5zm-25.5 35.5c0-4.687-3.813-8.5-8.5-8.5s-8.5 3.813-8.5 8.5 3.813 8.5 8.5 8.5 8.5-3.813 8.5-8.5zm178.5 40.5c-4.687 0-8.5 3.813-8.5 8.5s3.813 8.5 8.5 8.5 8.5-3.813 8.5-8.5-3.813-8.5-8.5-8.5zm-25-157c-4.687 0-8.5 3.813-8.5 8.5s3.813 8.5 8.5 8.5 8.5-3.813 8.5-8.5-3.813-8.5-8.5-8.5zm45 81c-4.687 0-8.5 3.813-8.5 8.5s3.813 8.5 8.5 8.5 8.5-3.813 8.5-8.5-3.813-8.5-8.5-8.5zm-18.5 35.5c0-4.687-3.813-8.5-8.5-8.5s-8.5 3.813-8.5 8.5 3.813 8.5 8.5 8.5 8.5-3.813 8.5-8.5z"/></g></g></svg>