<svg id="Layer_1" enable-background="new 0 0 512 512" height="512" viewBox="0 0 512 512" width="512" xmlns="http://www.w3.org/2000/svg"><g><g fill="#e0efff"><path d="m202.545 496.777h-51.732v-196.404c0-4.204-3.407-7.612-7.611-7.612s-7.611 3.407-7.611 7.612v196.404h-51.733c-4.204 0-7.611 3.407-7.611 7.611s3.407 7.612 7.611 7.612h118.687c4.204 0 7.611-3.407 7.611-7.612s-3.407-7.611-7.611-7.611z"/><path d="m428.142 496.777h-51.732v-196.404c0-4.204-3.407-7.612-7.612-7.612s-7.612 3.407-7.612 7.612v196.404h-51.731c-4.204 0-7.611 3.407-7.611 7.611s3.407 7.612 7.611 7.612h118.687c4.204 0 7.612-3.407 7.612-7.612s-3.408-7.611-7.612-7.611z"/></g><g><g><g><g><path d="m69.013 0c0 40.607 10.065 320.67 74.188 320.67 64.124 0 74.188-280.063 74.188-320.67z" fill="#e0efff"/><path d="m176.795 0c0 35.872-7.855 258.604-53.891 310.065 6.077 6.793 12.819 10.605 20.297 10.605 64.124 0 74.189-280.063 74.189-320.67z" fill="#d4e8ff"/><g><path d="m72.608 82.831c6.758 96.424 25.027 237.839 70.593 237.839s63.835-141.416 70.593-237.839z" fill="#ffdb0d"/></g><path d="m173.2 82.831c-5.648 80.596-19.344 192.606-50.296 227.213 6.078 6.796 12.818 10.627 20.297 10.627 45.566 0 63.835-141.416 70.593-237.84z" fill="#f5d000"/><g><path d="m120.64 132.982c9.795 0 9.812-15.223 0-15.223-9.795 0-9.812 15.223 0 15.223z" fill="#fff"/></g><g><path d="m140.035 220.402c9.795 0 9.812-15.223 0-15.223-9.796 0-9.812 15.223 0 15.223z" fill="#fff"/></g><g><path d="m165.086 178.697c9.795 0 9.811-15.223 0-15.223-9.795 0-9.811 15.223 0 15.223z" fill="#fff"/></g></g><g><g><path d="m294.61 0c0 40.607 10.065 320.67 74.188 320.67 64.124 0 74.189-280.063 74.189-320.67z" fill="#e0efff"/></g><path d="m402.393 0c0 35.872-7.855 258.604-53.891 310.065 6.077 6.793 12.819 10.605 20.297 10.605 64.124 0 74.188-280.063 74.188-320.67z" fill="#d4e8ff"/><g><path d="m298.206 82.831c6.758 96.424 25.027 237.839 70.593 237.839s63.835-141.416 70.593-237.839z" fill="#ffdb0d"/></g><path d="m398.797 82.831c-5.649 80.596-19.344 192.606-50.296 227.213 6.078 6.796 12.818 10.627 20.297 10.627 45.566 0 63.835-141.416 70.593-237.84z" fill="#f5d000"/><g><path d="m341.257 166.667c9.795 0 9.811-15.223 0-15.223-9.796 0-9.812 15.223 0 15.223z" fill="#fff"/></g><g><path d="m392.168 187.519c9.795 0 9.811-15.223 0-15.223-9.795 0-9.811 15.223 0 15.223z" fill="#fff"/></g><g><path d="m384.087 131.378c9.795 0 9.811-15.223 0-15.223-9.795 0-9.811 15.223 0 15.223z" fill="#fff"/></g></g></g><g><path d="m368.799 258.097c9.795 0 9.811-15.223 0-15.223-9.795 0-9.812 15.223 0 15.223z" fill="#fff"/></g></g><path d="m270.752 289.197c-6.588 0-12.251 4.376-14.753 10.646-2.501-6.27-8.165-10.646-14.753-10.646-8.904 0-16.122 7.993-16.122 17.853 0 22.569 30.874 35.032 30.874 35.032s30.57-12.632 30.874-35.032c.135-9.859-7.216-17.853-16.12-17.853z" fill="#ff91c1"/><path d="m276.744 385.136c-9.263 0-17.228 6.154-20.745 14.97-3.517-8.816-11.482-14.97-20.745-14.97-12.52 0-22.67 11.24-22.67 25.105 0 31.736 43.415 49.262 43.415 49.262s42.987-17.763 43.415-49.262c.188-13.864-10.15-25.105-22.67-25.105z" fill="#ff5492"/></g></g></svg>