<?xml version="1.0" encoding="utf-8"?>
<!-- Generator: Adobe Illustrator 16.0.0, SVG Export Plug-In . SVG Version: 6.00 Build 0)  -->
<!DOCTYPE svg PUBLIC "-//W3C//DTD SVG 1.1//EN" "http://www.w3.org/Graphics/SVG/1.1/DTD/svg11.dtd">
<svg version="1.1" id="Capa_1" xmlns="http://www.w3.org/2000/svg" xmlns:xlink="http://www.w3.org/1999/xlink" x="0px" y="0px"
	 width="150px" height="150px" viewBox="0 0 150 150" enable-background="new 0 0 150 150" xml:space="preserve">
<g>
	<g>
		<g>
			<g>
				<path d="M75.145,60.368c0.711,0,1.288-0.579,1.288-1.292v-6.805c0-0.71-0.576-1.286-1.288-1.286
					c-0.71,0-1.287,0.576-1.287,1.286v6.805C73.856,59.789,74.435,60.368,75.145,60.368z"/>
				<path d="M68.818,61.333c0.25,0.253,0.582,0.378,0.909,0.378c0.33,0,0.662-0.125,0.91-0.378c0.503-0.503,0.503-1.32,0-1.819
					l-4.809-4.813c-0.503-0.503-1.321-0.503-1.822,0c-0.503,0.506-0.503,1.32,0,1.822L68.818,61.333z"/>
				<path d="M80.563,61.711c0.329,0,0.659-0.125,0.911-0.378l4.812-4.81c0.501-0.502,0.501-1.317-0.004-1.822
					c-0.502-0.503-1.316-0.503-1.817,0l-4.813,4.813c-0.502,0.5-0.502,1.317,0,1.819C79.905,61.586,80.232,61.711,80.563,61.711z"/>
				<path d="M68.097,81.638c0.337,0,0.669-0.136,0.908-0.381c0.242-0.235,0.378-0.566,0.378-0.906c0-0.338-0.136-0.673-0.378-0.913
					c-0.239-0.239-0.571-0.374-0.908-0.374c-0.341,0-0.674,0.136-0.912,0.374c-0.242,0.241-0.378,0.573-0.378,0.913
					c0,0.341,0.136,0.671,0.378,0.906C67.423,81.5,67.755,81.638,68.097,81.638z"/>
				<path d="M99.404,119.16l-7.057-3.313l-2.152-12.435c1.721-0.572,3.212-1.675,4.275-3.188c1.318-1.866,1.826-4.135,1.436-6.386
					l-5.033-29.064c-0.122-0.703-0.789-1.169-1.49-1.049l-14.235,2.467l-14.237-2.467c-0.703-0.124-1.368,0.346-1.492,1.049
					L54.384,93.84c-0.731,4.216,1.774,8.256,5.713,9.573l-2.154,12.434l-7.057,3.313c-0.508,0.238-0.802,0.781-0.729,1.336
					c0.077,0.563,0.503,1.004,1.057,1.101l13.671,2.367c0.075,0.014,0.146,0.021,0.221,0.021c0.01,0,0.021,0,0.029,0
					c0.698-0.02,1.262-0.59,1.262-1.292c0-0.384-0.172-0.732-0.442-0.965l-5.472-5.442l2.154-12.434c0.059,0,0.12,0.002,0.181,0.002
					c4.168,0,7.707-2.984,8.418-7.094l3.911-22.572l3.909,22.572c0.713,4.109,4.252,7.094,8.416,7.094l0,0
					c0.063,0,0.123-0.002,0.186-0.002l2.153,12.434l-5.532,5.496c-0.397,0.396-0.493,1.005-0.234,1.502
					c0.225,0.437,0.667,0.701,1.142,0.701c0.074,0,0.147-0.008,0.221-0.021l13.673-2.367c0.552-0.094,0.981-0.538,1.055-1.101
					C100.208,119.941,99.915,119.398,99.404,119.16z M61.737,66.484l11.775,2.038l-1.056,6.093l-11.773-2.041L61.737,66.484z
					 M61.791,101.188c-3.246-0.561-5.43-3.658-4.868-6.905l3.32-19.164l11.775,2.036l-3.32,19.165
					c-0.499,2.873-2.967,4.957-5.877,4.957C62.476,101.276,62.133,101.245,61.791,101.188z M61.295,120.727l-5.611-0.97l3.147-1.478
					L61.295,120.727z M81.594,96.319l-3.317-19.166l11.771-2.036l3.32,19.164c0.272,1.57-0.084,3.157-1.005,4.462
					c-0.916,1.305-2.289,2.172-3.863,2.444c-0.34,0.058-0.686,0.089-1.027,0.089C84.563,101.276,82.092,99.192,81.594,96.319z
					 M88.553,66.484l1.057,6.092l-11.775,2.041l-1.053-6.094L88.553,66.484z M88.995,120.727l2.468-2.447l3.145,1.478
					L88.995,120.727z"/>
				<path d="M81.774,78.179c-0.342,0-0.674,0.136-0.912,0.375s-0.377,0.571-0.377,0.912c0,0.34,0.139,0.671,0.377,0.911
					c0.238,0.239,0.574,0.376,0.912,0.376c0.34,0,0.669-0.137,0.91-0.376c0.238-0.242,0.379-0.571,0.379-0.911
					c0-0.341-0.141-0.673-0.379-0.912S82.114,78.179,81.774,78.179z"/>
				<path d="M89.631,80.378c0.242-0.241,0.38-0.571,0.38-0.91s-0.138-0.675-0.38-0.912c-0.238-0.241-0.57-0.376-0.91-0.376
					s-0.672,0.136-0.911,0.376c-0.239,0.239-0.376,0.573-0.376,0.912s0.137,0.67,0.376,0.91c0.239,0.239,0.571,0.375,0.911,0.375
					S89.393,80.616,89.631,80.378z"/>
				<path d="M85.876,82.922c-0.341,0-0.674,0.14-0.917,0.376c-0.235,0.239-0.372,0.573-0.372,0.915c0,0.34,0.137,0.671,0.372,0.911
					c0.243,0.239,0.576,0.376,0.917,0.376c0.337,0,0.667-0.137,0.905-0.376c0.244-0.241,0.381-0.571,0.381-0.911
					c0-0.342-0.137-0.677-0.381-0.915C86.545,83.062,86.213,82.922,85.876,82.922z"/>
				<path d="M61.57,82.493c-0.339,0-0.668,0.135-0.912,0.374c-0.236,0.241-0.378,0.572-0.378,0.916c0,0.339,0.142,0.669,0.378,0.909
					c0.245,0.239,0.573,0.378,0.912,0.378c0.337,0,0.672-0.139,0.911-0.378c0.242-0.242,0.378-0.57,0.378-0.909
					c0-0.344-0.136-0.677-0.378-0.916C62.242,82.628,61.91,82.493,61.57,82.493z"/>
				<path d="M67.712,86.75c0-0.342-0.136-0.674-0.378-0.913c-0.239-0.239-0.571-0.375-0.911-0.375c-0.336,0-0.668,0.136-0.906,0.375
					c-0.244,0.24-0.381,0.571-0.381,0.913c0,0.34,0.137,0.67,0.381,0.908c0.239,0.241,0.57,0.378,0.906,0.378
					c0.34,0,0.673-0.137,0.911-0.378C67.574,87.42,67.712,87.09,67.712,86.75z"/>
			</g>
		</g>
	</g>
</g>
</svg>
