<?xml version="1.0" encoding="iso-8859-1"?>
<!-- Generator: Adobe Illustrator 19.0.0, SVG Export Plug-In . SVG Version: 6.00 Build 0)  -->
<svg version="1.1" id="Capa_1" xmlns="http://www.w3.org/2000/svg" xmlns:xlink="http://www.w3.org/1999/xlink" x="0px" y="0px"
	 viewBox="0 0 512 512" style="enable-background:new 0 0 512 512;" xml:space="preserve">
<polyline style="fill:#F1C400;" points="272.772,158.105 272.772,82.914 319.744,82.914 319.744,50.579 272.772,50.579 
	272.772,7.596 240.355,7.596 240.355,50.579 193.383,50.579 193.383,82.914 240.355,82.914 240.355,158.105 "/>
<polygon style="fill:#B8BBCB;" points="487.993,349.281 487.993,469.722 24.003,469.722 24.003,349.281 47.194,325.523 
	113.293,296.286 156.758,277.065 343.865,269.703 478.251,323.457 481.026,330.819 "/>
<polygon style="fill:#E6EFF6;" points="374.013,219.584 374.013,469.742 137.993,469.742 137.993,219.584 165.822,191.543 
	186.744,170.468 250.636,155.936 254.97,154.954 288.491,167.309 333.525,183.907 349.546,192.94 373.841,206.642 "/>
<path style="fill:#9E7C59;" d="M258.584,354.466h-3.101c-23.122,0-41.865,18.744-41.865,41.865v73.393h86.832v-73.393
	C300.45,373.209,281.705,354.466,258.584,354.466z"/>
<polygon style="fill:#CED6DB;" points="374.013,219.584 374.013,240.01 256.023,190.479 137.993,240.031 137.993,219.584 
	165.822,191.543 250.636,155.936 256.023,153.678 288.491,167.309 349.546,192.94 373.841,206.642 "/>
<polygon style="fill:#B00715;" points="120.604,226.902 256.02,170.048 391.437,226.902 391.437,190.105 256.02,133.25 
	120.604,190.105 "/>
<g>
	<polygon style="fill:#A3A5B2;" points="137.993,285.926 137.993,322.728 24.003,370.548 24.003,349.281 47.194,325.523 
		113.293,296.286 	"/>
	<polygon style="fill:#A3A5B2;" points="487.993,349.281 487.993,370.548 374.013,322.728 374.013,285.926 481.026,330.819 	"/>
</g>
<g>
	<polyline style="fill:#B00715;" points="137.991,301.457 7.908,356.037 7.908,319.236 137.991,264.657 	"/>
	<polyline style="fill:#B00715;" points="374.008,264.657 504.091,319.236 504.091,356.037 374.008,301.457 	"/>
</g>
<g>
	<path style="fill:#423E3E;" d="M83.5,362.568h-1.819c-13.561,0-24.554,10.993-24.554,24.554v43.045h50.927v-43.045
		C108.054,373.561,97.06,362.568,83.5,362.568z"/>
	<path style="fill:#423E3E;" d="M430.318,362.568H428.5c-13.561,0-24.554,10.993-24.554,24.554v43.045h50.927v-43.045
		C454.872,373.561,443.88,362.568,430.318,362.568z"/>
	<rect x="7.888" y="469.236" style="fill:#423E3E;" width="496.224" height="35.171"/>
	<circle style="fill:#423E3E;" cx="256.001" cy="270.159" r="30.887"/>
</g>
<path style="fill:#D8B75F;" d="M298.969,227.19c-10.998-10.988-26.188-17.793-42.969-17.793c-16.781,0-31.971,6.805-42.959,17.793
	c-10.998,10.998-17.803,26.188-17.803,42.969s6.805,31.971,17.803,42.969c10.988,10.988,26.178,17.793,42.959,17.793
	c16.78,0,31.971-6.805,42.969-17.793c10.998-10.998,17.793-26.188,17.793-42.969S309.967,238.188,298.969,227.19z M234.166,292.003
	c-5.59-5.59-9.054-13.307-9.054-21.844s3.463-16.254,9.054-21.844c5.59-5.58,13.317-9.043,21.834-9.043
	c8.537,0,16.254,3.463,21.844,9.054c5.59,5.59,9.043,13.307,9.043,21.834c0,8.527-3.453,16.244-9.043,21.834
	c-5.59,5.59-13.307,9.054-21.844,9.054C247.483,301.046,239.756,297.583,234.166,292.003z"/>
<g>
	<path style="fill:#A43645;" d="M316.762,270.159h-29.875c0-8.527-3.453-16.244-9.043-21.834v-0.01l21.125-21.125
		C309.967,238.188,316.762,253.378,316.762,270.159z"/>
	<path style="fill:#A43645;" d="M225.113,270.159c0,8.537,3.463,16.254,9.054,21.844l-21.125,21.125
		c-10.998-10.998-17.803-26.188-17.803-42.969L225.113,270.159L225.113,270.159z"/>
</g>
<g>
	<path style="fill:#61A6BD;" d="M277.844,292.003l21.125,21.125c-10.998,10.988-26.188,17.793-42.969,17.793v-29.875
		c8.537,0,16.254-3.463,21.844-9.054V292.003z"/>
	<path style="fill:#61A6BD;" d="M256,209.396v29.875c-8.517,0-16.244,3.463-21.834,9.043l-21.125-21.125
		C224.029,216.202,239.22,209.396,256,209.396z"/>
</g>
<g>
	<path style="fill:#FF85AE;" d="M234.166,248.315c-5.59,5.59-9.054,13.307-9.054,21.844h-29.875c0-16.78,6.805-31.971,17.803-42.969
		L234.166,248.315z"/>
	<path style="fill:#FF85AE;" d="M286.887,270.159h29.875c0,16.78-6.795,31.971-17.793,42.969l-21.125-21.125v-0.01
		C283.434,286.402,286.887,278.686,286.887,270.159z"/>
</g>
<path d="M83.499,354.972h-1.819c-17.727,0-32.149,14.422-32.149,32.149v43.044c0,4.195,3.4,7.595,7.595,7.595h50.927
	c4.196,0,7.595-3.401,7.595-7.595v-43.044C115.649,369.394,101.227,354.972,83.499,354.972z M100.458,422.57H64.722v-35.449
	c0-9.351,7.608-16.959,16.959-16.959h1.819c9.35,0,16.959,7.607,16.959,16.959V422.57z"/>
<path d="M403.946,437.761h50.927c4.196,0,7.595-3.401,7.595-7.595v-43.044c0-17.727-14.422-32.149-32.149-32.149H428.5
	c-17.727,0-32.149,14.422-32.149,32.149v43.044C396.35,434.36,399.75,437.761,403.946,437.761z M411.541,387.122
	c0-9.351,7.608-16.959,16.959-16.959h1.819c9.35,0,16.959,7.607,16.959,16.959v35.449h-35.736V387.122z"/>
<path d="M504.112,461.638h-8.525V360.705l5.566,2.335c0.945,0.396,1.942,0.591,2.937,0.591c2.065,0,4.11-0.842,5.612-2.472
	c1.334-1.447,1.984-3.399,1.984-5.366v-36.557c0-3.059-1.836-5.821-4.657-7.005l-43.593-18.29c-3.869-1.623-8.319,0.197-9.943,4.065
	l0,0c-1.622,3.867,0.197,8.319,4.065,9.942l38.936,16.337v20.327l-114.892-48.207v-20.327l45.57,19.12
	c3.869,1.623,8.319-0.198,9.943-4.065l0,0c1.622-3.868-0.197-8.319-4.065-9.942l-51.446-21.586v-28.596l6.893,2.894
	c0.945,0.397,1.944,0.592,2.939,0.592c2.287,0,4.549-1.031,6.074-3.025c1.036-1.354,1.522-3.052,1.522-4.757v-36.61
	c0-3.059-1.835-5.819-4.655-7.003l-114.012-47.867v-44.73h39.374c4.195,0,7.595-3.401,7.595-7.595V50.584
	c0-4.195-3.401-7.595-7.595-7.595h-39.374V7.595c0-4.195-3.401-7.595-7.595-7.595h-32.417c-4.195,0-7.595,3.401-7.595,7.595v35.394
	h-39.374c-4.195,0-7.595,3.401-7.595,7.595V82.91c0,4.195,3.401,7.595,7.595,7.595h39.374v44.275l-115.095,48.322
	c-2.82,1.184-4.655,3.944-4.655,7.003v36.582c0,1.761,0.513,3.516,1.608,4.895c2.198,2.772,5.853,3.615,8.928,2.322l6.852-2.876
	v28.578L4.97,312.232c-2.821,1.184-4.657,3.944-4.657,7.005v36.557c0,1.968,0.65,3.919,1.984,5.366
	c1.503,1.63,3.549,2.472,5.612,2.472c0.993,0,1.994-0.195,2.937-0.591l5.566-2.335v100.933H7.888c-4.195,0-7.595,3.401-7.595,7.595
	v35.171c0,4.195,3.401,7.595,7.595,7.595h496.224c4.195,0,7.595-3.401,7.595-7.595v-35.171
	C511.707,465.039,508.307,461.638,504.112,461.638z M480.397,354.332v107.306h-98.793V312.88L480.397,354.332z M240.354,75.315
	H200.98V58.18h39.374c4.196,0,7.595-3.401,7.595-7.595V15.191h17.226v35.394c0,4.195,3.4,7.595,7.595,7.595h39.374v17.135H272.77
	c-4.196,0-7.595,3.401-7.595,7.595v45.947l-6.214-2.609c-1.881-0.79-3.999-0.79-5.881,0l-5.131,2.154V82.91
	C247.949,78.715,244.548,75.315,240.354,75.315z M128.199,195.154l127.822-53.665l127.821,53.665v20.322l-124.881-52.431
	c-1.881-0.79-3.999-0.79-5.881,0l-124.881,52.431L128.199,195.154L128.199,195.154z M15.504,324.287l114.891-48.207v20.327
	L15.504,344.613V324.287z M31.603,354.332l98.792-41.452v38.684c0,4.195,3.401,7.595,7.595,7.595l0,0
	c4.195,0,7.595-3.401,7.595-7.595V224.651l110.435-46.366l110.393,46.348v237.005h-58.369v-65.307
	c0-27.317-22.145-49.46-49.46-49.46h-3.101c-27.316,0-49.46,22.144-49.46,49.46v65.307h-60.437v-74.627
	c0-4.195-3.401-7.595-7.595-7.595l0,0c-4.195,0-7.595,3.401-7.595,7.595v74.627H31.603V354.332z M265.233,461.638v-32.992h27.62
	v32.992H265.233z M292.854,413.456h-27.62v-50.742c15.724,3.105,27.62,16.996,27.62,33.618V413.456z M250.042,413.456h-28.83
	v-17.125c0-17.045,12.51-31.219,28.83-33.833V413.456z M221.213,428.647h28.83v32.992h-28.83V428.647z M496.517,496.81H15.483
	v-19.981h481.034V496.81z"/>
<path d="M256,338.516c37.693,0,68.357-30.665,68.357-68.357S293.693,201.801,256,201.801s-68.357,30.665-68.357,68.357
	S218.307,338.516,256,338.516z M256,246.866c12.844,0,23.292,10.449,23.292,23.292c0,12.843-10.448,23.292-23.292,23.292
	c-12.844,0-23.292-10.449-23.292-23.292C232.708,257.316,243.156,246.866,256,246.866z M234.707,302.193
	c4.086,2.725,8.719,4.691,13.698,5.691v14.89c-8.994-1.292-17.27-4.835-24.228-10.051L234.707,302.193z M263.595,307.885
	c4.979-1.001,9.612-2.966,13.698-5.691l10.53,10.53c-6.958,5.215-15.234,8.758-24.228,10.05V307.885z M288.035,291.452
	c2.725-4.086,4.691-8.719,5.691-13.698h14.89c-1.292,8.994-4.836,17.27-10.051,24.228L288.035,291.452z M293.726,262.563
	c-1.001-4.979-2.966-9.612-5.691-13.698l10.53-10.53c5.215,6.958,8.759,15.234,10.051,24.228H293.726z M277.293,238.124
	c-4.086-2.725-8.719-4.691-13.698-5.691v-14.889c8.994,1.292,17.27,4.835,24.228,10.05L277.293,238.124z M248.405,232.432
	c-4.979,1.001-9.612,2.967-13.699,5.692l-10.53-10.53c6.958-5.215,15.234-8.759,24.228-10.051v14.889H248.405z M223.965,248.867
	c-2.725,4.086-4.691,8.718-5.691,13.697h-14.89c1.292-8.993,4.836-17.27,10.051-24.228L223.965,248.867z M218.274,277.754
	c1.001,4.979,2.966,9.612,5.691,13.698l-10.53,10.53c-5.215-6.958-8.758-15.234-10.051-24.228H218.274z"/>
<g>
</g>
<g>
</g>
<g>
</g>
<g>
</g>
<g>
</g>
<g>
</g>
<g>
</g>
<g>
</g>
<g>
</g>
<g>
</g>
<g>
</g>
<g>
</g>
<g>
</g>
<g>
</g>
<g>
</g>
</svg>
