<?xml version="1.0" encoding="utf-8"?>
<!-- Generator: Adobe Illustrator 16.0.0, SVG Export Plug-In . SVG Version: 6.00 Build 0)  -->
<!DOCTYPE svg PUBLIC "-//W3C//DTD SVG 1.1//EN" "http://www.w3.org/Graphics/SVG/1.1/DTD/svg11.dtd">
<svg version="1.1" id="Capa_1" xmlns="http://www.w3.org/2000/svg" xmlns:xlink="http://www.w3.org/1999/xlink" x="0px" y="0px"
	 width="150px" height="150px" viewBox="0 0 150 150" enable-background="new 0 0 150 150" xml:space="preserve">
<g>
	<g>
		<g>
			<g>
				<path d="M75.17,75.703c-3.152,0-5.716,2.565-5.716,5.719c0,3.151,2.564,5.714,5.716,5.714c3.149,0,5.714-2.563,5.714-5.714
					C80.885,78.27,78.319,75.703,75.17,75.703z M75.17,84.522c-1.712,0-3.104-1.392-3.104-3.101c0-1.711,1.391-3.104,3.104-3.104
					c1.708,0,3.1,1.394,3.1,3.104C78.271,83.131,76.878,84.522,75.17,84.522z"/>
				<path d="M108.864,121.623h-4.578v-15.777c0-0.509-0.294-0.971-0.755-1.185l-8.323-3.88v-5.212c0-0.495-0.278-0.948-0.723-1.167
					l-8.091-4.052V77.193c0-0.297-0.105-0.587-0.288-0.816l-9.631-11.949v-7.964H79.1c0.722,0,1.306-0.586,1.306-1.306
					c0-0.721-0.584-1.307-1.306-1.307h-2.624v-2.917c0-0.722-0.584-1.306-1.305-1.306s-1.308,0.584-1.308,1.306v2.917h-2.623
					c-0.721,0-1.303,0.586-1.303,1.307c0,0.719,0.582,1.306,1.303,1.306h2.623v7.964l-9.625,11.949
					c-0.191,0.229-0.291,0.521-0.291,0.816v13.157l-8.094,4.052c-0.443,0.219-0.722,0.672-0.722,1.167v5.212l-8.324,3.88
					c-0.459,0.214-0.752,0.678-0.752,1.185v15.779h-4.579c-0.724,0-1.308,0.581-1.308,1.306c0,0.722,0.584,1.307,1.308,1.307h67.388
					c0.721,0,1.305-0.585,1.305-1.307C110.17,122.206,109.585,121.623,108.864,121.623z M101.672,121.623h-6.466v-17.961
					l6.466,3.013V121.623z M55.132,121.623h-6.463v-14.945l6.463-3.013V121.623z M72.067,121.623v-11.917
					c0-0.772,1.327-1.641,3.104-1.641c1.774,0,3.1,0.868,3.1,1.641v11.917H72.067z M92.593,121.623H80.885v-11.917
					c0-2.385-2.511-4.254-5.714-4.254c-3.206,0-5.716,1.869-5.716,4.254v11.917H57.746V96.374l8.09-4.046
					c0.443-0.222,0.722-0.673,0.722-1.17V77.657l8.613-10.683l8.611,10.683v13.501c0,0.497,0.278,0.948,0.721,1.17l8.091,4.046
					V121.623z"/>
			</g>
		</g>
	</g>
</g>
</svg>
