<svg height="496pt" viewBox="0 0 496 496" width="496pt" xmlns="http://www.w3.org/2000/svg"><path d="m128 251.3125-74.054688-74.054688c-8.992187-8.992187-13.945312-20.945312-13.945312-33.65625 0-26.25 21.351562-47.601562 47.601562-47.601562 12.710938 0 24.664063 4.953125 33.65625 13.945312l6.742188 6.742188 6.742188-6.742188c8.992187-8.992187 20.945312-13.945312 33.65625-13.945312 26.25 0 47.601562 21.351562 47.601562 47.601562 0 12.710938-4.953125 24.664063-13.945312 33.65625zm0 0" fill="#f0bc5e"/><path d="m464 464h-192v-432h192zm0 0" fill="#f0bc5e"/><path d="m68.6875 0-68.6875 68.6875v427.3125h496v-496zm-4.6875 27.3125v36.6875h-36.6875zm416 452.6875h-224v-224h-16v224h-224v-400h64v-64h160v224h16v-224h224zm0 0"/><path d="m352 176c19.566406 0 35.832031-14.144531 39.265625-32.734375 18.589844-3.433594 32.734375-19.699219 32.734375-39.265625 0-22.054688-17.945312-40-40-40-19.566406 0-35.832031 14.144531-39.265625 32.734375-18.589844 3.433594-32.734375 19.699219-32.734375 39.265625 0 22.054688 17.945312 40 40 40zm32-96c13.230469 0 24 10.769531 24 24 0 10.839844-7.265625 19.910156-17.144531 22.878906-3.457031-14.71875-15.015625-26.277344-29.734375-29.734375 2.96875-9.878906 12.039062-17.144531 22.878906-17.144531zm-10.550781 45.449219c-4.738281-2.34375-8.5625-6.167969-10.898438-10.898438 4.738281 2.335938 8.5625 6.160157 10.898438 10.898438zm-28.304688-12.328125c3.457031 14.71875 15.015625 26.277344 29.734375 29.734375-2.96875 9.878906-12.039062 17.144531-22.878906 17.144531-13.230469 0-24-10.769531-24-24 0-10.839844 7.265625-19.910156 17.144531-22.878906zm0 0"/><path d="m304 224h56v16h-56zm0 0"/><path d="m376 224h56v16h-56zm0 0"/><path d="m304 256h56v16h-56zm0 0"/><path d="m376 256h56v16h-56zm0 0"/><path d="m304 288h56v16h-56zm0 0"/><path d="m376 288h56v16h-56zm0 0"/><path d="m304 192h128v16h-128zm0 0"/><path d="m304 320h128v16h-128zm0 0"/><path d="m432 432v-80h-128v80zm-112-64h96v48h-96zm0 0"/><path d="m32 272h192v16h-192zm0 0"/><path d="m32 304h192v16h-192zm0 0"/><path d="m96 336h128v16h-128zm0 0"/><path d="m96 368h128v16h-128zm0 0"/><path d="m32 400h192v16h-192zm0 0"/><path d="m32 432h192v16h-192zm0 0"/><path d="m80 336h-48v48h48zm-16 32h-16v-16h16zm0 0"/></svg>