<svg id="Filled_expand" height="512" viewBox="0 0 512 512" width="512" xmlns="http://www.w3.org/2000/svg" data-name="Filled expand"><g id="_16_copy_2" data-name="16 copy 2"><g><rect fill="#ffeae8" height="432" rx="10" width="352" x="80" y="48"/><path d="m408 160.568-68.284-68.284a40 40 0 0 1 56.568-56.568l11.716 11.716 11.716-11.716a40 40 0 0 1 56.568 56.568z" fill="#ff593f"/><path d="m395.224 101.037a17.75 17.75 0 0 0 -24.774 0l-10.29 8.981-10.255-8.981a17.75 17.75 0 0 0 -24.774 0 16.976 16.976 0 0 0 0 24.321l35.047 33.693 35.046-33.693a16.975 16.975 0 0 0 0-24.321z" fill="#ff7a65"/><path d="m104 488 68.284-68.284a40 40 0 0 0 -56.568-56.569l-11.716 11.716-11.716-11.716a40 40 0 0 0 -56.568 56.569z" fill="#ff593f"/><path d="m29.131 429.986a17.75 17.75 0 0 1 24.774 0l10.29 8.982 10.255-8.982a17.75 17.75 0 0 1 24.774 0 16.975 16.975 0 0 1 0 24.321l-35.046 33.693-35.047-33.693a16.976 16.976 0 0 1 0-24.321z" fill="#ff7a65"/><path d="m177.941 357.49a48.054 48.054 0 0 0 -67.882 0l-6.059 6.06-6.059-6.06a48 48 0 0 0 -71.249 64.147 25.526 25.526 0 0 0 -3.166 2.64 24.977 24.977 0 0 0 .061 35.8l35.047 33.693a8 8 0 0 0 11.088 0l14.648-14.085 13.973 13.972a8 8 0 0 0 11.314 0l68.284-68.284a48.056 48.056 0 0 0 0-67.883zm-113.763 119.41-29.443-28.3a8.979 8.979 0 0 1 0-12.905 9.73 9.73 0 0 1 13.566 0q.166.165.344.319l10.29 8.986a8 8 0 0 0 10.531-.009l10.255-8.981c.114-.1.225-.2.334-.31a9.73 9.73 0 0 1 13.565 0 8.978 8.978 0 0 1 .061 12.845zm102.449-62.843-62.627 62.63-8.093-8.094 8.922-8.577a24.977 24.977 0 0 0 0-35.739 25.815 25.815 0 0 0 -35.8-.173l-4.837 4.237-4.866-4.241a25.515 25.515 0 0 0 -14.873-6.96l-3.08-3.08a32 32 0 0 1 45.254-45.254l11.716 11.716a8 8 0 0 0 11.314 0l11.716-11.716a32 32 0 0 1 45.254 45.254z"/><path d="m220.22 40-140.22 140.22v-45.26l94.96-94.96z" fill="#ff7a65"/><path d="m136 32v16h19.646l-67.646 67.646v-65.646a2 2 0 0 1 2-2h30v-16h-30a18.021 18.021 0 0 0 -18 18v278h16v-144.466l135.534-135.534h88.466v-16zm-48 128.906v-22.633l90.273-90.273h22.633z"/><path d="m291.78 472 140.22-140.22v45.26l-94.96 94.96z" fill="#ff7a65"/><path d="m424 168v160.466l-135.534 135.534h-136.466v16h270a18.021 18.021 0 0 0 18-18v-294zm-2 296h-65.646l25.3-25.3-11.314-11.314-36.613 36.614h-22.633l112.906-112.906v22.633l-37.657 37.656 11.314 11.317 26.343-26.346v65.646a2 2 0 0 1 -2 2z"/><g><path d="m136 192h160v16h-160z"/><path d="m312 192h64v16h-64z"/></g><g><path d="m216 232h160v16h-160z"/><path d="m136 232h64v16h-64z"/></g><g><path d="m136 272h160v16h-160z"/><path d="m312 272h64v16h-64z"/></g><g><path d="m216 312h160v16h-160z"/><path d="m136 312h64v16h-64z"/></g><path d="m264 368h80v16h-80z"/><path d="m152 136h80v16h-80z"/></g><path d="m481.941 30.059a48.053 48.053 0 0 0 -67.882 0l-6.059 6.059-6.059-6.059a48 48 0 0 0 -74.311 59.916 25.348 25.348 0 0 0 -8.1 5.353 24.976 24.976 0 0 0 .061 35.8l35.047 33.693a8 8 0 0 0 11.088 0l17.953-17.26 18.668 18.667a8 8 0 0 0 11.314 0l68.284-68.284a48.054 48.054 0 0 0 -.004-67.885zm-121.763 117.9-29.443-28.305a8.977 8.977 0 0 1 0-12.9 9.73 9.73 0 0 1 13.566 0c.108.107.22.21.334.31l10.255 8.98a8 8 0 0 0 10.531.009l10.29-8.981q.175-.154.344-.318a9.729 9.729 0 0 1 13.565 0 8.978 8.978 0 0 1 .061 12.845zm110.449-61.332-62.627 62.628-12.788-12.788 5.617-5.4a24.976 24.976 0 0 0 0-35.738 25.814 25.814 0 0 0 -35.8-.179l-4.86 4.243-4.838-4.237a25.319 25.319 0 0 0 -5.4-3.973l-4.555-4.555a32 32 0 1 1 45.254-45.254l11.716 11.715a8 8 0 0 0 11.314 0l11.716-11.715a32 32 0 1 1 45.254 45.254z"/></g></svg>