<svg height="512pt" viewBox="0 -21 512 511" width="512pt" xmlns="http://www.w3.org/2000/svg"><path d="m42.179688 252.550781v-72.386719l-38.28125 35.535157c-1.359376 1.261719-2.558594 3.335937-3.253907 5.433593zm0 0" fill="#76d8ff"/><path d="m174.285156 307.914062c2.214844-2.050781 5.832032-2.050781 8.046875 0l26.558594 24.65625 68.847656-52.191406v-94.941406c0-2.289062 1.863281-4.152344 4.152344-4.152344h33.546875v-175.632812c0-2.832032-2.316406-5.152344-5.148438-5.152344h-263.960937c-2.832031 0-5.148437 2.320312-5.148437 5.152344v246.140625l106.546874 80.777343zm0 0" fill="#ffe2b8"/><path d="m65.414062 270.171875v-264.519531c0-2.832032 2.320313-5.152344 5.152344-5.152344h-24.238281c-2.832031 0-5.148437 2.320312-5.148437 5.152344v246.140625zm0 0" fill="#eac092"/><path d="m1.609375 468.226562 146.859375-136.34375-147.433594-111.777343c-.636718 1.535156-1.035156 3.152343-1.035156 4.527343v239.808594c0 1.480469.621094 2.820313 1.609375 3.785156zm0 0" fill="#def9ff"/><path d="m281.890625 330.332031c-2.289063 0-4.152344-1.863281-4.152344-4.152343v-47.058594l-69.589843 52.761718 146.859374 136.34375c.988282-.964843 1.609376-2.304687 1.609376-3.789062v-134.105469zm0 0" fill="#def9ff"/><path d="m24.035156 446.308594v-208.765625l-23-17.4375c-.636718 1.535156-1.035156 3.152343-1.035156 4.527343v239.808594c0 1.191406.414062 2.285156 1.089844 3.171875zm0 0" fill="#abebff"/><path d="m182.332031 306.816406c-2.214843-2.050781-5.832031-2.050781-8.046875 0l-173.195312 160.796875c.972656 1.289063 2.503906 2.136719 4.238281 2.136719h345.960937c1.734376 0 3.265626-.847656 4.238282-2.136719zm0 0" fill="#abebff"/><path d="m33.421875 467.613281 161.054687-149.519531-12.144531-11.277344c-2.214843-2.050781-5.832031-2.050781-8.046875 0l-173.195312 160.796875c.972656 1.289063 2.503906 2.136719 4.238281 2.136719h32.332031c-1.730468 0-3.265625-.847656-4.238281-2.136719zm0 0" fill="#76d8ff"/><path d="m186.53125 112.53125c-3.097656-3.085938-4.800781-7.1875-4.800781-11.546875 0-4.363281 1.703125-8.464844 4.800781-11.550781 3.097656-3.085938 7.214844-4.789063 11.597656-4.789063 4.378906 0 8.5 1.703125 11.59375 4.789063l3.90625 3.886718c4.222656-5.039062 6.523438-11.328124 6.523438-17.976562 0-7.507812-2.933594-14.570312-8.265625-19.878906-5.328125-5.3125-12.410157-8.234375-19.949219-8.234375-7.535156 0-14.621094 2.921875-19.953125 8.234375l-9.558594 9.523437-9.554687-9.523437c-5.332032-5.3125-12.417969-8.234375-19.953125-8.234375-7.539063 0-14.621094 2.921875-19.949219 8.234375-5.332031 5.308594-8.265625 12.371094-8.265625 19.878906 0 7.511719 2.933594 14.566406 8.265625 19.878906l45.527344 45.367188c1.050781 1.046875 2.445312 1.625 3.933594 1.625 1.480468 0 2.878906-.578125 3.929687-1.625l24.167969-24.082032zm0 0" fill="#fe3745"/><path d="m134.464844 84.195312c-5.332032-5.308593-8.269532-12.367187-8.269532-19.878906 0-6.25 2.042969-12.1875 5.796876-17.0625-7.191407.230469-13.917969 3.117188-19.023438 8.214844-5.332031 5.304688-8.269531 12.367188-8.269531 19.878906 0 7.507813 2.9375 14.566406 8.269531 19.875l45.527344 45.367188c1.050781 1.046875 2.445312 1.625 3.929687 1.625s2.878907-.578125 3.933594-1.625l12.351563-12.304688zm0 0" fill="#cf043c"/><path d="m216.320312 142.214844c-.914062 0-1.773437-.359375-2.421874-1.003906l-28.074219-27.972657c-3.285157-3.273437-5.097657-7.628906-5.097657-12.253906 0-4.632813 1.8125-8.984375 5.097657-12.257813 3.285156-3.277343 7.652343-5.078124 12.300781-5.078124s9.019531 1.800781 12.304688 5.078124l5.890624 5.871094 5.894532-5.871094c3.289062-3.277343 7.65625-5.078124 12.304687-5.078124 4.644531 0 9.011719 1.800781 12.300781 5.078124 3.285157 3.273438 5.09375 7.625 5.09375 12.257813 0 4.628906-1.808593 8.980469-5.09375 12.253906l-28.074218 27.972657c-.648438.644531-1.507813 1.003906-2.425782 1.003906zm0 0" fill="#ff99a3"/><path d="m204.335938 105.992188c-3.289063-3.273438-5.101563-7.628907-5.101563-12.253907 0-3.472656 1.019531-6.789062 2.914063-9.609375-1.304688-.304687-2.648438-.480468-4.019532-.480468-4.648437 0-9.019531 1.800781-12.300781 5.078124-3.289063 3.273438-5.097656 7.625-5.097656 12.257813 0 4.628906 1.808593 8.980469 5.097656 12.253906l28.070313 27.972657c.648437.644531 1.507812 1.003906 2.425781 1.003906.914062 0 1.773437-.359375 2.421875-1.003906l10.464844-10.425782zm0 0" fill="#f66"/><g fill="#ffaf68"><path d="m208.34375 285.320312h-60.074219c-4.140625 0-7.5-3.355468-7.5-7.5 0-4.140624 3.359375-7.5 7.5-7.5h60.074219c4.144531 0 7.5 3.359376 7.5 7.5 0 4.144532-3.355469 7.5-7.5 7.5zm0 0"/><path d="m247.863281 252.460938h-139.113281c-4.140625 0-7.5-3.355469-7.5-7.5 0-4.140626 3.359375-7.5 7.5-7.5h139.113281c4.144531 0 7.5 3.359374 7.5 7.5 0 4.144531-3.355469 7.5-7.5 7.5zm0 0"/><path d="m247.863281 219.601562h-139.113281c-4.140625 0-7.5-3.359374-7.5-7.5 0-4.140624 3.359375-7.5 7.5-7.5h139.113281c4.144531 0 7.5 3.359376 7.5 7.5 0 4.140626-3.355469 7.5-7.5 7.5zm0 0"/><path d="m247.863281 186.050781h-139.113281c-4.140625 0-7.5-3.359375-7.5-7.5 0-4.144531 3.359375-7.5 7.5-7.5h139.113281c4.144531 0 7.5 3.355469 7.5 7.5 0 4.140625-3.355469 7.5-7.5 7.5zm0 0"/></g><path d="m78.441406 102.226562c-1.972656 0-3.902344-.800781-5.300781-2.203124-1.402344-1.398438-2.199219-3.328126-2.199219-5.296876 0-1.980468.796875-3.910156 2.199219-5.3125 1.398437-1.390624 3.328125-2.1875 5.300781-2.1875 1.980469 0 3.910156.796876 5.308594 2.1875 1.390625 1.402344 2.191406 3.332032 2.191406 5.3125 0 1.96875-.800781 3.898438-2.191406 5.296876-1.398438 1.402343-3.328125 2.203124-5.308594 2.203124zm0 0" fill="#cf043c"/><path d="m278.179688 102.226562c-1.980469 0-3.910157-.800781-5.308594-2.203124-1.390625-1.398438-2.199219-3.328126-2.199219-5.296876 0-1.980468.808594-3.910156 2.199219-5.3125 1.398437-1.390624 3.328125-2.1875 5.308594-2.1875 1.96875 0 3.898437.796876 5.300781 2.1875 1.390625 1.402344 2.191406 3.332032 2.191406 5.3125 0 1.96875-.800781 3.898438-2.191406 5.296876-1.402344 1.402343-3.332031 2.203124-5.300781 2.203124zm0 0" fill="#cf043c"/><path d="m229.082031 415.097656c0 2.832032-2.320312 5.152344-5.152343 5.152344h-91.242188c-2.832031 0-5.152344-2.320312-5.152344-5.152344v-10.40625c0-2.835937 2.320313-5.15625 5.152344-5.15625h91.242188c2.832031 0 5.152343 2.320313 5.152343 5.15625zm0 0" fill="#fff"/><path d="m159.605469 415.097656v-10.40625c0-2.835937 2.320312-5.15625 5.152343-5.15625h-32.070312c-2.832031 0-5.152344 2.320313-5.152344 5.15625v10.40625c0 2.832032 2.320313 5.152344 5.152344 5.152344h32.070312c-2.832031 0-5.152343-2.316406-5.152343-5.152344zm0 0" fill="#def9ff"/><path d="m512 326.179688c0 2.835937-2.316406 5.15625-5.152344 5.15625h-224.957031c-2.835937 0-5.152344-2.320313-5.152344-5.15625v-140.742188c0-2.835938 2.316407-5.152344 5.152344-5.152344h224.957031c2.835938 0 5.152344 2.320313 5.152344 5.152344zm0 0" fill="#ff99a3"/><path d="m298.238281 326.179688v-140.742188c0-2.835938 2.316407-5.152344 5.148438-5.152344h-21.5c-2.832031 0-5.148438 2.320313-5.148438 5.152344v140.742188c0 2.835937 2.316407 5.15625 5.148438 5.15625h21.5c-2.832031-.003907-5.148438-2.320313-5.148438-5.15625zm0 0" fill="#ff788c"/><path d="m342.585938 282.164062c-.8125 0-1.574219-.320312-2.148438-.894531l-24.890625-24.929687c-2.917969-2.917969-4.523437-6.800782-4.523437-10.925782s1.605468-8.007812 4.523437-10.921874c2.910156-2.917969 6.78125-4.527344 10.90625-4.527344 4.117187 0 7.992187 1.609375 10.910156 4.527344l5.226563 5.230468 5.222656-5.230468c2.917969-2.917969 6.789062-4.527344 10.910156-4.527344s7.996094 1.609375 10.910156 4.527344c2.914063 2.917968 4.515626 6.796874 4.515626 10.921874s-1.601563 8.007813-4.515626 10.925782l-24.894531 24.929687c-.578125.574219-1.339843.894531-2.152343.894531zm0 0" fill="#fff"/><path d="m329.257812 248.101562c-2.914062-2.921874-4.519531-6.800781-4.519531-10.925781 0-2.554687.617188-5.011719 1.777344-7.207031-.023437 0-.042969-.003906-.066406-.003906-4.121094 0-7.992188 1.605468-10.90625 4.527344-2.914063 2.914062-4.519531 6.796874-4.519531 10.921874s1.605468 8.003907 4.519531 10.925782l24.894531 24.929687c.574219.574219 1.335938.890625 2.148438.890625s1.574218-.316406 2.148437-.890625l8.820313-8.835937zm0 0" fill="#e0e0e0"/><path d="m477.714844 243.074219h-78.023438c-4.144531 0-7.5-3.355469-7.5-7.5 0-4.140625 3.355469-7.5 7.5-7.5h78.023438c4.140625 0 7.5 3.359375 7.5 7.5 0 4.144531-3.359375 7.5-7.5 7.5zm0 0" fill="#f66"/><path d="m477.714844 264.722656h-78.023438c-4.144531 0-7.5-3.359375-7.5-7.5 0-4.144531 3.355469-7.5 7.5-7.5h78.023438c4.140625 0 7.5 3.355469 7.5 7.5 0 4.140625-3.359375 7.5-7.5 7.5zm0 0" fill="#f66"/><path d="m445.996094 286.367188h-46.304688c-4.144531 0-7.5-3.355469-7.5-7.5 0-4.140626 3.355469-7.5 7.5-7.5h46.304688c4.144531 0 7.5 3.359374 7.5 7.5 0 4.144531-3.355469 7.5-7.5 7.5zm0 0" fill="#f66"/></svg>