<svg height="512" viewBox="0 0 64 64" width="512" xmlns="http://www.w3.org/2000/svg"><g id="wine-love-heart-romance-drink"><path d="m60.56 39.01a7.572 7.572 0 1 1 -15.12 0l.37-6.58.19.01c2.33 0 2.33 1.12 4.67 1.12s2.33-1.12 4.67-1.12 2.33 1.12 4.66 1.12l.25-.01z" fill="#ffeb99"/><path d="m60 29 .25 4.55-.25.01c-2.33 0-2.33-1.12-4.66-1.12s-2.34 1.12-4.67 1.12-2.34-1.12-4.67-1.12l-.19-.01.19-3.43z" fill="#46f8ff"/><path d="m55 18a2.006 2.006 0 0 1 2 2c0 2-4 5-4 5s-4-3-4-5a2 2 0 0 1 4 0 2.006 2.006 0 0 1 2-2z" fill="#ed539d"/><path d="m39.56 39.01a7.572 7.572 0 1 1 -15.12 0l.37-6.58.19.01c2.33 0 2.33 1.12 4.67 1.12s2.33-1.12 4.67-1.12 2.33 1.12 4.66 1.12l.25-.01z" fill="#ffeb99"/><path d="m39 29 .25 4.55-.25.01c-2.33 0-2.33-1.12-4.66-1.12s-2.34 1.12-4.67 1.12-2.34-1.12-4.67-1.12l-.19-.01.19-3.43z" fill="#46f8ff"/><path d="m32 47a7.317 7.317 0 0 1 -2-.27 7.571 7.571 0 0 0 5.56-7.72l-.31-5.46-.06-1.05c1.53.23 1.81 1.06 3.81 1.06l.25-.01.31 5.46a7.575 7.575 0 0 1 -7.56 7.99z" fill="#ebbf00"/><path d="m39.25 33.55-.25.01c-2 0-2.28-.83-3.81-1.06l-.19-3.5h4z" fill="#00b6bd"/><path d="m53 47a7.317 7.317 0 0 1 -2-.27 7.571 7.571 0 0 0 5.56-7.72l-.31-5.46-.06-1.05c1.53.23 1.81 1.06 3.81 1.06l.25-.01.31 5.46a7.575 7.575 0 0 1 -7.56 7.99z" fill="#ebbf00"/><path d="m60.25 33.55-.25.01c-2 0-2.28-.83-3.81-1.06l-.19-3.5h4z" fill="#00b6bd"/><path d="m34 18a2.006 2.006 0 0 1 2 2c0 2-4 5-4 5s-4-3-4-5a2 2 0 0 1 4 0 2.006 2.006 0 0 1 2-2z" fill="#ed539d"/><path d="m21 3a6 6 0 0 1 6 6c0 7-12 16-12 16s-12-9-12-16a6 6 0 0 1 12 0 6 6 0 0 1 6-6z" fill="#ed539d"/><path d="m27 9c0 7-12 16-12 16a55.057 55.057 0 0 1 -7.19-6.66c1.82 1.63 3.19 2.66 3.19 2.66s12-9 12-16a5.91 5.91 0 0 0 -.26-1.74 6 6 0 0 1 4.26 5.74z" fill="#e4187a"/><path d="m59.22 45.32a8.44 8.44 0 0 0 2.33-6.36l-.55-10.02a1.006 1.006 0 0 0 -1-.94h-14a1.006 1.006 0 0 0 -1 .94l-.55 10.02a8.565 8.565 0 0 0 7.55 8.98v12.06h-5v2h12v-2h-5v-12.06a8.488 8.488 0 0 0 5.22-2.62zm-12.27-15.32h12.1l.14 2.49a4.383 4.383 0 0 1 -1.09-.39 6.122 6.122 0 0 0 -5.53 0 4.154 4.154 0 0 1 -3.8 0 5.861 5.861 0 0 0 -1.91-.61zm6.05 16a6.567 6.567 0 0 1 -6.56-6.93l.31-5.57a4.208 4.208 0 0 1 1.15.4 6.122 6.122 0 0 0 5.53 0 4.175 4.175 0 0 1 3.81 0 5.47 5.47 0 0 0 2.07.62l.25 4.55a6.567 6.567 0 0 1 -6.56 6.93z"/><path d="m38.22 45.32a8.44 8.44 0 0 0 2.33-6.36l-.55-10.02a1.006 1.006 0 0 0 -1-.94h-14a1.006 1.006 0 0 0 -1 .94l-.55 10.02a8.565 8.565 0 0 0 7.55 8.98v12.06h-5v2h12v-2h-5v-12.06a8.488 8.488 0 0 0 5.22-2.62zm-12.27-15.32h12.1l.14 2.49a4.383 4.383 0 0 1 -1.09-.39 6.122 6.122 0 0 0 -5.53 0 4.154 4.154 0 0 1 -3.8 0 5.861 5.861 0 0 0 -1.91-.61zm6.05 16a6.567 6.567 0 0 1 -6.56-6.93l.31-5.57a4.208 4.208 0 0 1 1.15.4 6.122 6.122 0 0 0 5.53 0 4.175 4.175 0 0 1 3.81 0 5.47 5.47 0 0 0 2.07.62l.25 4.55a6.567 6.567 0 0 1 -6.56 6.93z"/><path d="m48.724 15.311a23.6 23.6 0 0 0 -7.308-5.22 23.967 23.967 0 0 0 -11.481-2.091l.13 2a21.891 21.891 0 0 1 10.519 1.911 21.652 21.652 0 0 1 6.692 4.78z"/><path d="m51.081 14.4 1.838-.792a22.079 22.079 0 0 0 -6.287-8.379 21.643 21.643 0 0 0 -5.243-3.147l-.778 1.844a19.516 19.516 0 0 1 4.757 2.853 20.05 20.05 0 0 1 5.713 7.621z"/><path d="m21 2a7 7 0 0 0 -6 3.4 7 7 0 0 0 -13 3.6c0 7.415 11.894 16.42 12.4 16.8a1 1 0 0 0 1.2 0c.506-.38 12.4-9.385 12.4-16.8a7.009 7.009 0 0 0 -7-7zm-6 21.734c-3.561-2.802-11-9.708-11-14.734a5 5 0 0 1 10 0 1 1 0 0 0 2 0 5 5 0 0 1 10 0c0 5.565-8.633 12.841-11 14.734z"/><path d="m48 20c0 2.38 3.665 5.249 4.4 5.8a1 1 0 0 0 1.2 0c.735-.551 4.4-3.42 4.4-5.8a3 3 0 0 0 -5-2.234 3 3 0 0 0 -5 2.234zm4 0a1 1 0 0 0 2 0 1 1 0 0 1 2 0c0 .817-1.463 2.458-3 3.727-1.537-1.269-3-2.91-3-3.727a1 1 0 0 1 2 0z"/><path d="m31.4 25.8a1 1 0 0 0 1.2 0c.735-.551 4.4-3.42 4.4-5.8a3 3 0 0 0 -5-2.234 3 3 0 0 0 -5 2.234c0 2.38 3.665 5.249 4.4 5.8zm-1.4-6.8a1 1 0 0 1 1 1 1 1 0 0 0 2 0 1 1 0 0 1 2 0c0 .817-1.463 2.458-3 3.727-1.537-1.269-3-2.91-3-3.727a1 1 0 0 1 1-1z"/></g></svg>